# xmcd
#
# Track frame offsets:
#	150
#	31382
#	40560
#	61680
#	84729
#	111482
#	129337
#	163618
#	184549
#	204927
#	228043
#	238485
#	291292
#
# Disc length: 4486 seconds
#
# Revision: 1
# Processed by: cddbd v1.5.2PL0 Copyright (c) Steve Scherf et al.
# Submitted via: audiograbber 1.83.01
#
DISCID=a911840d
DTITLE=Grateful Dead - 70-06-24A Capitol Theatre, Port Chester NY
DYEAR=1900
DGENRE=
TTITLE0=NRPS I Don't Know You
TTITLE1=NRPS Together Again
TTITLE2=NRPS Fair Chance To Know
TTITLE3=NRPS Portland Woman
TTITLE4=NRPS Garden Of Eden
TTITLE5=NRPS Henry
TTITLE6=NRPS All I Ever Wanted
TTITLE7=NRPS Delia
TTITLE8=NRPS Louisiana Lady
TTITLE9=NRPS Honky Tonk Woman
TTITLE10=Intros
TTITLE11=Not Fade Away
TTITLE12=Easy Wind
EXTD=
EXTT0=
EXTT1=
EXTT2=
EXTT3=
EXTT4=
EXTT5=
EXTT6=
EXTT7=
EXTT8=
EXTT9=
EXTT10=
EXTT11=
EXTT12=
PLAYORDER=
